Coordinates
version=1
nRows=21
nColumns=12
inDegrees=yes

Units are S.I. units (second, meters, Newtons, ...)
Angles are in degrees

endheader
time	SC_y	SC_z	SC_x	AC_y	AC_z	AC_x	GH_y	GH_z	GH_yy	EL_x	PS_y
       0.0              -25.27           15.8          69.74          57.92          3.585          19.38         -164.3          85.94          146.7          52.76          143.6
   0.03697              -25.27           15.8          69.74          57.92          3.585          19.38         -164.2          85.94          146.7          52.77          143.6
   0.07394              -25.27          15.79          69.74          57.91          3.585          19.38         -164.2          85.94          146.7          52.77          143.6
    0.1109              -25.27          15.79          69.74          57.91          3.586          19.38         -164.1          85.94          146.7          52.78          143.5
    0.1479              -25.27          15.79          69.74          57.91          3.586          19.38         -164.1          85.93          146.7          52.79          143.5
    0.1848              -25.27          15.78          69.74           57.9          3.586          19.37         -164.0          85.93          146.7          52.79          143.5
    0.2218              -25.27          15.78          69.74           57.9          3.586          19.37         -164.0          85.93          146.7           52.8          143.5
    0.2588              -25.27          15.77          69.74          57.89          3.587          19.37         -163.9          85.92          146.7          52.81          143.4
    0.2958              -25.26          15.77          69.74          57.89          3.587          19.37         -163.8          85.92          146.7          52.81          143.4
    0.3327              -25.26          15.76          69.74          57.88          3.587          19.37         -163.8          85.91          146.7          52.82          143.4
    0.3697              -25.26          15.76          69.74          57.88          3.588          19.36         -163.7          85.91          146.7          52.83          143.4
    0.4067              -25.26          15.75          69.73          57.87          3.588          19.36         -163.6          85.91          146.7          52.84          143.3
    0.4436              -25.26          15.75          69.73          57.86          3.589          19.36         -163.5           85.9          146.7          52.85          143.3
    0.4806              -25.26          15.74          69.73          57.86          3.589          19.36         -163.4          85.89          146.7          52.86          143.2
    0.5176              -25.26          15.73          69.73          57.85           3.59          19.35         -163.3          85.89          146.7          52.87          143.2
    0.5545              -25.26          15.72          69.73          57.84           3.59          19.35         -163.2          85.88          146.7          52.89          143.2
    0.5915              -25.26          15.72          69.73          57.83          3.591          19.35         -163.1          85.88          146.7           52.9          143.1
    0.6285              -25.26          15.71          69.73          57.82          3.591          19.34         -163.0          85.87          146.7          52.92          143.0
    0.6655              -25.26           15.7          69.72          57.81          3.592          19.34         -162.8          85.86          146.6          52.93          143.0
    0.7024              -25.26          15.69          69.72           57.8          3.593          19.33         -162.7          85.85          146.6          52.95          142.9
    0.7394              -25.26          15.67          69.72          57.79          3.594          19.33         -162.5          85.84          146.6          52.97          142.9
